<?xml version="1.0" encoding="UTF-8"?>
<svg id="Layer_1" data-name="Layer 1" xmlns="http://www.w3.org/2000/svg" viewBox="0 0 518.78 93.12">
  <defs>
    <style>
      .cls-1, .cls-2 {
        fill: #58595b;
      }

      .cls-3, .cls-4 {
        fill: #f8971d;
      }

      .cls-2, .cls-4 {
        fill-rule: evenodd;
      }
    </style>
  </defs>
  <path class="cls-4" d="M53.26,6.25c1.87.86,6.15,1.19,8.16,6.92,1.49,4.25-.38,9.33-3.13,11.1.24,2.84.89,3.22.1,6.39-1.22,4.93-5.18,9.5-7.78,13.58-2.21,3.48-3.53,4.71-5.28,8.93-.77,1.86-1.19,4-.45,5.97.53,1.4,2.1,3.32,3.52,3.73.86-.6,1.09-1.51,2.64-1.61v30.32s3.47.05,3.47.05l.08-30.41c.73-.01,1.2.34,1.61.67.69.56.85,1.16,1.36,1.15,4.07-1.8,4.55-8.18,5.25-13.32.62-4.59,1.5-11.65,6.94-11.52.22,6.48-1.09,5.36,1.73,13.26,1.61,4.52,3.02,7.16,2.38,12.92-.86,7.64-5.92,12.38-12.65,14.4-3.12.94-3.43,0-3.44,2.05l.04,10.74c3.33.32,8.08.05,11.56.05,9.36,0,8.92-.76,13.86-9.33,1.46-2.53,2.79-4.87,4.31-7.48,2.94-5.07,5.62-9.85,8.49-14.69,1.51-2.55,2.78-4.79,4.25-7.34,4.48-7.76,3.29-8.12-1.58-16.49-4.09-7.05-8.72-15.48-12.8-22.17-1.49-2.45-2.77-4.89-4.22-7.37-1.48-2.53-2.51-4.88-5.52-6.08-2.41-.97-18.97-.64-22.86-.53l-.03,6.11Z"/>
  <path class="cls-2" d="M48.14,91.55v-12.46c-5.44-1.57-5.66-1.72-9.83-4.61-6.34-4.38-8.41-14.01-6.24-21.58.57-1.97,1.29-3.4,2.23-5.08,3.34-5.96,8.83-10.33,10.8-18.26,1.87-7.54-1.67-4.23-3.22-10.47-1-4.02.46-8.04,3.39-10.5,1.67-1.4,2.56-1.64,4.96-2.32V.18c-3.36-.22-20.93-.34-23.11.41-3.17,1.09-4.06,3.15-5.69,6.1-4.11,7.42-8.95,15.26-13.11,22.68C6.52,32.58.36,42.29.05,44.89c-.42,3.58,1.76,6.21,3.12,8.62l13.03,22.55c1.44,2.56,2.86,4.88,4.31,7.48,1.49,2.67,2.82,5.58,5.07,6.93,2.83,1.7,7.14,1.16,10.63,1.16,3.17,0,9.09.34,11.93-.06"/>
  <path class="cls-2" d="M50.41,11.87c-2.4.49-4.32,2.78-3.71,5.73.47,2.3,2.87,4.31,5.8,3.61,5.99-1.41,4.11-10.61-2.09-9.34"/>
  <path class="cls-4" d="M58.21,76.31c6.15.49,12.37-5.76,12.56-11.37-1.39,1.14-2.23,5.22-8.64,9.28-1.12.71-2.91,1.43-3.91,2.09"/>
  <polygon class="cls-1" points="288.23 86.75 286.83 88.15 283.52 91.46 282.1 92.88 279.41 93.12 280.25 91.82 280.49 91.46 280.57 91.35 285.17 86.75 280.84 82.43 280.71 82.3 280.68 82.25 279.49 80.31 282.1 80.62 283.91 82.43 288.23 86.75"/>
  <polygon class="cls-3" points="284.72 81.1 288.25 81.53 293.31 86.9 288.25 91.96 284.72 92.42 285.31 91.83 286.83 90.31 290.39 86.75 286.83 83.2 285.88 82.26 284.72 81.1"/>
  <polygon class="cls-1" points="291.16 91.5 293.31 89.35 293.31 84.18 291.16 82.15 292.23 82.15 293.31 82.39 293.31 81.63 293.92 81.63 293.92 91.96 293.31 91.96 293.31 91.35 292.23 91.5 291.16 91.5"/>
  <path class="cls-3" d="M295.68,88.63c-.41.48-.44,1.26,0,1.84h-.84v-7.3h.82c-.06.11-.28.45-.2.89.01.09.08.51.41.68.13.06.24.07.39.07.38-.02.88-.02,1.59,0,.19,0,.41.03.64.08.38.09.85.26,1.26.6l1.5,1.37s2.04,2.59,4.78,1.77c0,0,2.73-.68,2.73-3.55,0,0,0-3.41-3.55-3.82,0,0-4.23-.28-4.36-3.14,0,0-.14-.82.68-.41.25.09.54.17.87.22.67.11,1.24.06,1.66-.01.54-.14,1.22-.25,1.99-.23,2.01.05,3.5.9,4.21,1.39.34.26,3.02,2.38,3.06,6.07,0,.43,0,3.58-2.59,5.87-2.44,2.17-5.4,1.96-6.34,1.84-.51-.07-1.24-.16-2.09-.58-1.13-.55-2.67-1.77-3.84-3.17-.16-.18-.45-.54-.96-.74-.13-.04-1.21-.43-1.81.26"/>
  <path class="cls-3" d="M151.66,87.88l7.99-.03c.64,0,1.15-.52,1.15-1.16,0-.64-.52-1.15-1.16-1.15l-7.99.03c-.64,0-1.15.52-1.15,1.16,0,.64.52,1.15,1.16,1.15M173.8,87.88l7.99-.03c.64,0,1.15-.52,1.15-1.16,0-.64-.52-1.15-1.16-1.15l-7.99.03c-.64,0-1.15.52-1.15,1.16,0,.64.52,1.15,1.16,1.15ZM195.94,87.88l7.99-.03c.64,0,1.15-.52,1.15-1.16,0-.64-.52-1.15-1.16-1.15l-7.99.03c-.64,0-1.15.52-1.15,1.16,0,.64.52,1.15,1.16,1.15ZM199.64,88.1h-2.74c-.18.13-.4.2-.64.2h-3.36c-.38.01-.72-.17-.94-.45h.92c.64,0,1.15-.52,1.15-1.16,0-.64-.52-1.15-1.16-1.15h-.83c.21-.22.51-.36.84-.36h3.37c.21-.01.41.05.58.15h2.79c-.44-1.46-1.79-2.51-3.38-2.51h-3.37c-1.66.02-3.05,1.18-3.42,2.73h-1.26c-.35-1.58-1.77-2.77-3.45-2.76h-3.37c-1.59.02-2.93,1.08-3.36,2.53h2.79c.17-.11.37-.17.58-.17h3.37c.37-.01.69.15.91.41h-.79c-.64,0-1.15.52-1.15,1.16,0,.64.52,1.15,1.16,1.15h.75c-.21.24-.53.39-.87.39h-3.36c-.24.01-.46-.06-.64-.18h-2.74c.43,1.47,1.79,2.54,3.39,2.54h3.37c1.67-.02,3.07-1.19,3.42-2.76h1.24c.34,1.6,1.76,2.8,3.46,2.8h3.37c1.6-.02,2.95-1.1,3.37-2.56ZM162.42,87.88h1.09c-.21.24-.53.39-.88.39h-3.37c-.24.01-.46-.06-.64-.18h-2.74c.43,1.47,1.79,2.54,3.39,2.54h3.37c1.67-.02,3.07-1.19,3.42-2.76h1.25c.34,1.6,1.76,2.8,3.46,2.8h3.37c1.6-.02,2.95-1.1,3.37-2.56h-2.74c-.18.13-.4.2-.64.2h-3.36c-.38.01-.72-.17-.94-.45h.59c.64,0,1.15-.52,1.15-1.16,0-.64-.52-1.15-1.16-1.15h-.49c.21-.22.51-.36.84-.36h3.36c.21-.01.41.05.58.15h2.79c-.44-1.46-1.79-2.51-3.38-2.51h-3.37c-1.66.02-3.05,1.17-3.42,2.73h-1.26c-.35-1.58-1.77-2.77-3.45-2.76h-3.36c-1.59.02-2.93,1.08-3.37,2.53h2.79c.17-.11.37-.17.58-.17h3.37c.37-.01.69.15.91.41h-1.12c-.64,0-1.15.52-1.15,1.16,0,.64.52,1.15,1.16,1.15ZM133.26,88.1h-2.74c-.18.13-.4.2-.64.2h-3.37c-.65.01-1.18-.51-1.18-1.16v-.78c0-.65.52-1.18,1.17-1.18h3.37c.21-.01.41.05.58.15h2.79c-.44-1.46-1.79-2.51-3.38-2.51h-3.37c-1.94.02-3.52,1.6-3.51,3.54v.78c0,1.94,1.59,3.52,3.54,3.51h3.36c1.6-.02,2.95-1.1,3.37-2.56ZM140.53,90.62h-3.37c-1.6.01-2.96-1.06-3.39-2.52h2.74c.18.11.4.18.64.18h3.37c.35-.01.66-.16.87-.4h-.79c-.64,0-1.16-.51-1.16-1.15,0-.64.51-1.16,1.15-1.16h.82c-.22-.27-.54-.43-.91-.43h-3.37c-.21.01-.41.07-.58.17h-2.79c.43-1.44,1.77-2.5,3.36-2.51h3.37c1.69-.02,3.1,1.17,3.45,2.76h1.22c.37-1.56,1.76-2.71,3.42-2.72h3.36c1.59-.02,2.94,1.04,3.38,2.48h-2.79c-.17-.09-.37-.15-.58-.15h-3.36c-.33,0-.63.15-.84.37h.83c.64,0,1.16.51,1.16,1.15,0,.64-.52,1.16-1.15,1.16h-.92c.21.28.55.47.93.46h3.37c.24-.01.46-.09.64-.21h2.74c-.42,1.46-1.77,2.54-3.37,2.54h-3.37c-1.7.02-3.12-1.19-3.46-2.79h-1.21c-.35,1.57-1.75,2.75-3.43,2.76ZM273.75,90.62h-3.36c-1.6.01-2.96-1.06-3.39-2.52h2.74c.18.11.41.18.64.18h3.37c.35-.01.66-.16.87-.4h-.76c-.64,0-1.16-.51-1.16-1.15,0-.64.51-1.16,1.15-1.16h.79c-.22-.27-.54-.43-.91-.43h-3.37c-.21.01-.41.08-.58.17h-2.79c.43-1.44,1.77-2.5,3.36-2.51h3.37c1.69-.02,3.1,1.17,3.45,2.76l4.67-.02c.64,0,1.16.51,1.16,1.15,0,.64-.51,1.16-1.15,1.16l-4.68.02c-.35,1.57-1.75,2.75-3.43,2.75ZM262.77,87.88l7.99-.03c.64,0,1.15-.52,1.15-1.16,0-.64-.52-1.15-1.16-1.15l-7.99.03c-.64,0-1.15.52-1.15,1.16,0,.64.52,1.15,1.16,1.15ZM251.61,90.62h-3.37c-1.6.01-2.96-1.06-3.39-2.52h2.74c.19.11.41.18.64.18h3.37c.35-.01.66-.16.88-.4h-1.09c-.64,0-1.16-.51-1.16-1.15,0-.64.52-1.16,1.15-1.16h1.12c-.22-.27-.54-.43-.91-.43h-3.36c-.21.01-.41.08-.58.17h-2.79c.43-1.44,1.78-2.5,3.36-2.51h3.37c1.69-.02,3.1,1.17,3.45,2.75h1.26c.36-1.56,1.75-2.71,3.42-2.72h3.37c1.59-.02,2.94,1.04,3.38,2.48h-2.79c-.17-.09-.37-.15-.58-.15h-3.37c-.33,0-.63.15-.84.37h.49c.64,0,1.16.51,1.16,1.15,0,.64-.51,1.16-1.15,1.16h-.59c.21.28.55.47.94.46h3.36c.24-.01.46-.09.64-.21h2.74c-.42,1.46-1.77,2.54-3.37,2.54h-3.36c-1.7.02-3.13-1.19-3.46-2.79h-1.25c-.35,1.57-1.75,2.75-3.42,2.76ZM240.63,87.88l7.99-.03c.64,0,1.15-.52,1.15-1.16,0-.64-.52-1.15-1.16-1.15l-7.99.03c-.64,0-1.15.52-1.15,1.16,0,.64.52,1.15,1.16,1.15ZM222.23,88.1h-2.74c-.18.13-.4.2-.64.2h-3.37c-.38.01-.72-.17-.94-.45h.51c.64,0,1.15-.52,1.15-1.16,0-.64-.52-1.15-1.16-1.15h-.42c.21-.22.51-.36.84-.36h3.37c.21-.01.41.05.58.15h2.79c-.44-1.46-1.79-2.51-3.38-2.51h-3.36c-1.66.02-3.05,1.17-3.42,2.73h-1.71c-.35-1.58-1.76-2.77-3.45-2.76h-3.37c-1.59.02-2.93,1.08-3.36,2.53h2.79c.17-.11.37-.17.58-.17h3.37c.37-.01.69.15.91.41h-.75c-.64,0-1.15.52-1.15,1.16,0,.64.52,1.15,1.16,1.15h.72c-.21.24-.53.39-.87.39h-3.36c-.24.01-.46-.06-.64-.18h-2.74c.43,1.47,1.79,2.54,3.39,2.54h3.36c1.67-.02,3.07-1.19,3.43-2.76h1.69c.34,1.6,1.76,2.8,3.46,2.8h3.37c1.6-.02,2.95-1.1,3.37-2.56ZM218.53,87.88l7.99-.03c.64,0,1.15-.52,1.15-1.16,0-.64-.52-1.15-1.16-1.15l-7.99.03c-.64,0-1.15.52-1.15,1.16,0,.64.52,1.15,1.16,1.15ZM229.51,90.62h-3.37c-1.6.01-2.96-1.06-3.39-2.52h2.74c.18.11.4.18.64.18h3.37c.35-.01.66-.16.87-.4h-.79c-.64,0-1.16-.51-1.16-1.15,0-.64.51-1.16,1.15-1.16h.82c-.22-.27-.54-.43-.91-.43h-3.36c-.21.01-.41.07-.58.17h-2.79c.43-1.44,1.78-2.5,3.36-2.51h3.36c1.69-.02,3.11,1.17,3.45,2.76h1.22c.36-1.56,1.76-2.71,3.42-2.72h3.37c1.59-.02,2.94,1.04,3.38,2.48h-2.79c-.17-.09-.37-.15-.58-.15h-3.36c-.33,0-.63.15-.84.37h.83c.64,0,1.16.51,1.16,1.15,0,.64-.51,1.16-1.15,1.16h-.92c.21.28.55.47.94.46h3.36c.24-.01.46-.09.64-.21h2.74c-.42,1.46-1.77,2.54-3.37,2.54h-3.37c-1.7.02-3.13-1.19-3.46-2.79h-1.21c-.35,1.57-1.75,2.75-3.42,2.76ZM129.55,87.88l7.99-.03c.64,0,1.15-.52,1.15-1.16,0-.64-.52-1.15-1.16-1.15l-7.99.03c-.64,0-1.15.52-1.15,1.16,0,.64.52,1.15,1.16,1.15Z"/>
  <path class="cls-1" d="M194.88,8.22l-6.02,51.96h-11.01l6.03-51.96h-23.23l9.89,13.74-4.42-4.93-5.31,45.71,5.71,7.12h31.34l7.31-7.12,6.35-54.51h-16.64ZM264.79,18.8l-5.31-10.58h-44.36l9.81,13.74-4.34-4.92-6.19,52.84h16.79l2.89-24.75h2.09c1.89,8.27,3.78,16.53,5.66,24.79h16.65c-2.17-9.58-4.32-19.17-6.49-28.76l10.86-5.72,1.92-16.64ZM246.15,35.43h-10.93l2.01-17.52h11.01l-2.09,17.52ZM309.32,8.23h-31.34l-7.4,7.12-5.55,47.38,5.8,7.14h31.34l7.32-7.14,2.25-19.11,3.3-28.27-5.71-7.12ZM293.09,60.18h-10.93l1.77-15.32h-.08l1.36-11.62,1.77-15.33h11.09l-4.98,42.27ZM157.27,23.63l.96-8.28-5.7-7.14h-44.37l9.56,13.38-4.1-4.57-6.19,52.83h37.93l7.31-7.13,2.26-19.11-17.76,9.6-.8,6.95h-11.01l1.77-15.32,11.25-9.51h-10.13l2.01-17.43h11.01l-1.85,15.32,17.84-9.6Z"/>
  <path class="cls-3" d="M316.44,8.38h44.28l5.3,10.55-1.92,16.61-18.29,9.66h-10.42l-2.89,24.71h-16.77l6.18-52.74,4.33,4.92-9.78-13.71ZM367.33,8.22h23.25l-6.03,51.99h11.01l6.03-51.99h16.64l-6.36,54.54-7.32,7.15h-31.36l-5.72-7.15,5.32-45.73,4.42,4.93-9.9-13.74ZM421.86,8.22h23.24l-6.03,51.99h10.94l.88-6.96,17.77-9.61-2.25,19.12-7.55,7.15h-37.72l6.2-52.87,4.34,4.93-9.81-13.74ZM470.77,8.22h23.25l-6.03,51.99h10.94l.88-6.96,17.77-9.61-2.25,19.12-7.55,7.15h-37.72l6.2-52.87,4.33,4.93-9.81-13.74ZM336.5,35.54h10.91l2.09-17.49h-11l-2,17.49Z"/>
  <path class="cls-1" d="M323.62,88.65c0-.25-.06-.45-.19-.6-.13-.16-.31-.28-.52-.39-.21-.1-.45-.19-.73-.26-.28-.08-.57-.16-.85-.25-.35-.11-.66-.24-.95-.38-.29-.14-.55-.33-.76-.54-.22-.21-.39-.47-.52-.76-.12-.3-.19-.66-.19-1.06,0-.51.1-.97.28-1.38.19-.41.44-.77.79-1.07.34-.29.75-.53,1.24-.68.48-.16,1.02-.24,1.62-.24s1.26.07,1.89.2c.62.13,1.17.31,1.64.51l-.34,1.64c-.6-.25-1.14-.42-1.62-.53-.48-.11-.96-.16-1.43-.16-.64,0-1.14.13-1.5.41-.36.27-.54.63-.54,1.08,0,.24.05.44.14.61.1.17.23.32.39.43.16.12.35.21.57.29.22.09.45.17.69.24.35.11.7.22,1.05.34.35.13.67.28.95.48.27.2.51.45.67.76.18.3.26.68.26,1.14,0,.58-.11,1.11-.33,1.57-.23.47-.54.86-.96,1.18-.41.33-.9.57-1.5.75-.58.17-1.24.25-1.96.25-.37,0-.74-.02-1.08-.07-.34-.05-.66-.11-.96-.18-.28-.08-.54-.16-.76-.25-.22-.09-.39-.17-.52-.25l.34-1.63c.41.19.87.36,1.38.51.52.13,1.06.2,1.62.2.41,0,.78-.05,1.11-.13.33-.08.61-.2.85-.36.23-.16.42-.36.54-.6.13-.24.19-.5.19-.81"/>
  <polygon class="cls-1" points="332.14 92.03 330.17 92.03 332.07 82.89 328.68 82.89 329.01 81.23 337.76 81.23 337.42 82.89 334.04 82.89 332.14 92.03"/>
  <path class="cls-1" d="M339.73,92.02h-1.97l2.23-10.8h2.93c.47,0,.87.02,1.2.06.34.03.63.08.89.16.71.2,1.23.52,1.56.97.33.44.5.96.5,1.56,0,.43-.06.84-.19,1.22-.12.38-.31.73-.57,1.04-.27.3-.6.57-1,.8-.41.22-.89.4-1.46.53v.04l2.39,4.43h-2.18l-2.16-4.17h-1.3l-.87,4.17ZM340.94,86.19h.76c.35,0,.68-.01.97-.04.28-.03.54-.07.76-.13.51-.14.91-.37,1.22-.68.29-.32.44-.72.44-1.22,0-.26-.06-.49-.18-.67-.11-.19-.31-.34-.58-.43-.13-.04-.29-.07-.5-.1-.2-.02-.46-.03-.77-.03h-1.43l-.68,3.31Z"/>
  <polygon class="cls-1" points="350.58 90.37 355.67 90.37 355.33 92.03 348.28 92.03 350.51 81.23 357.28 81.23 356.93 82.88 352.14 82.88 351.56 85.68 355.67 85.68 355.33 87.33 351.22 87.33 350.58 90.37"/>
  <path class="cls-1" d="M364.98,92.03l-2.22-4.79c-.55-1.16-.97-2.2-1.3-3.1h-.05c-.11.89-.27,1.91-.52,3.08l-.99,4.81h-1.98l2.24-10.8h1.9l2.23,4.79c.54,1.15.97,2.19,1.29,3.1h.05c.07-.7.24-1.73.52-3.07l1-4.82h1.97l-2.23,10.8h-1.91Z"/>
  <path class="cls-1" d="M377.04,81.03c.57,0,1.1.05,1.61.15.52.1.97.22,1.37.37l-.34,1.63c-.45-.17-.88-.29-1.29-.36-.4-.08-.81-.12-1.21-.12-.51,0-.99.07-1.44.2-.44.13-.83.32-1.18.56-.35.25-.65.52-.9.85-.26.33-.46.68-.63,1.06-.17.38-.29.78-.38,1.2-.08.42-.13.84-.13,1.27,0,.9.2,1.58.59,2.04.39.45.97.68,1.74.68.36,0,.69-.04,1-.12.31-.08.59-.2.82-.37.24-.17.44-.39.6-.66.17-.27.29-.59.36-.97l.11-.54h-2.41l.34-1.66h4.4l-.5,2.41c-.14.69-.37,1.27-.68,1.73-.32.46-.69.82-1.12,1.09-.43.27-.91.47-1.44.58-.52.12-1.08.17-1.65.17-.6,0-1.15-.09-1.66-.27-.5-.19-.93-.46-1.3-.81-.36-.35-.65-.8-.85-1.33-.2-.53-.31-1.14-.31-1.84,0-.64.07-1.26.2-1.85.12-.59.32-1.15.58-1.67.26-.52.57-.97.95-1.4.37-.43.8-.78,1.28-1.08.49-.3,1.02-.54,1.6-.7.59-.17,1.22-.25,1.9-.25"/>
  <polygon class="cls-1" points="385.85 92.03 383.88 92.03 385.78 82.89 382.39 82.89 382.72 81.23 391.47 81.23 391.13 82.89 387.74 82.89 385.85 92.03"/>
  <polygon class="cls-1" points="394.75 85.68 399.36 85.68 400.29 81.23 402.25 81.23 400.02 92.02 398.04 92.02 399.03 87.33 394.42 87.33 393.44 92.02 391.47 92.02 393.71 81.23 395.68 81.23 394.75 85.68"/>
  <polygon class="cls-1" points="406.51 92.03 408.74 81.23 410.71 81.23 408.48 92.03 406.51 92.03"/>
  <path class="cls-1" d="M418.65,92.03l-2.22-4.79c-.55-1.16-.97-2.2-1.3-3.1h-.04c-.11.89-.27,1.91-.52,3.08l-.99,4.81h-1.98l2.24-10.8h1.9l2.23,4.79c.54,1.15.97,2.19,1.29,3.1h.05c.07-.7.24-1.73.51-3.07l1-4.82h1.97l-2.23,10.8h-1.91Z"/>
  <polygon class="cls-1" points="429.4 90.37 434.49 90.37 434.15 92.03 427.09 92.03 429.33 81.23 436.1 81.23 435.74 82.88 430.96 82.88 430.37 85.68 434.49 85.68 434.15 87.33 430.04 87.33 429.4 90.37"/>
  <path class="cls-1" d="M445.49,81.23h2.18l-5.96,10.8h-1.68l-2.05-10.8h1.96l.81,4.6c.24,1.38.42,2.48.55,3.31h.04c.43-.87,1-1.97,1.71-3.31l2.43-4.6Z"/>
  <polygon class="cls-1" points="449.97 90.37 455.06 90.37 454.72 92.03 447.67 92.03 449.9 81.23 456.67 81.23 456.32 82.88 451.53 82.88 450.95 85.68 455.06 85.68 454.72 87.33 450.61 87.33 449.97 90.37"/>
  <path class="cls-1" d="M459.28,92.02h-1.97l2.23-10.8h2.92c.47,0,.87.02,1.21.06.34.03.63.08.89.16.71.2,1.23.52,1.56.97.33.44.49.96.49,1.56,0,.43-.06.84-.19,1.22-.12.38-.31.73-.57,1.04-.27.3-.6.57-1,.8-.41.22-.89.4-1.46.53v.04l2.39,4.43h-2.18l-2.16-4.17h-1.3l-.87,4.17ZM460.49,86.19h.76c.35,0,.68-.01.97-.04.28-.03.54-.07.76-.13.52-.14.91-.37,1.21-.68.29-.32.44-.72.44-1.22,0-.26-.06-.49-.18-.67-.12-.19-.31-.34-.59-.43-.12-.04-.29-.07-.49-.1-.2-.02-.46-.03-.77-.03h-1.44l-.68,3.31Z"/>
  <polygon class="cls-1" points="470.27 92.03 471.17 87.66 468.59 81.23 470.62 81.23 472.39 85.77 475.44 81.23 477.69 81.23 473.13 87.7 472.24 92.03 470.27 92.03"/>
  <path class="cls-1" d="M482.9,92.02h-1.97l2.23-10.8h2.7c1.01,0,1.8.1,2.35.27.64.22,1.11.54,1.4.97.29.44.43.95.43,1.54s-.12,1.08-.34,1.55c-.22.47-.55.88-.98,1.21-.42.34-.96.6-1.59.79-.63.19-1.35.28-2.17.28-.41,0-.82-.02-1.2-.08l-.88,4.25ZM484.12,86.12c.27.05.59.07.95.07.5,0,.95-.06,1.33-.15.37-.11.68-.25.93-.43.25-.19.43-.41.56-.66.12-.27.19-.55.19-.86,0-.26-.07-.47-.2-.64-.13-.18-.31-.31-.54-.4-.13-.06-.32-.1-.53-.13-.21-.04-.48-.04-.81-.04h-1.2l-.67,3.23Z"/>
  <path class="cls-1" d="M495.72,90.56c.56,0,1.05-.11,1.46-.35.42-.23.76-.6,1.04-1.13.1-.19.19-.4.27-.64.08-.25.15-.54.23-.89l1.3-6.31h1.97l-1.38,6.71c-.09.41-.18.74-.27,1.04-.09.28-.19.54-.31.79-.18.36-.4.69-.66.99-.26.3-.57.57-.93.78-.36.21-.78.38-1.26.51-.48.12-1.03.18-1.65.18-.67,0-1.25-.09-1.72-.27-.47-.18-.85-.42-1.15-.72-.29-.3-.5-.65-.63-1.05-.13-.4-.21-.82-.21-1.26,0-.26.02-.5.06-.75.04-.25.08-.5.13-.74l1.28-6.21h1.97l-1.32,6.42c-.05.2-.08.37-.1.54-.03.18-.04.34-.04.5,0,.26.04.5.1.73.06.22.17.43.32.6.15.17.34.3.58.4.24.1.54.15.9.15"/>
  <polygon class="cls-1" points="505.1 90.37 510.19 90.37 509.85 92.03 502.8 92.03 505.03 81.23 507 81.23 505.1 90.37"/>
  <polygon class="cls-1" points="513.7 90.37 518.78 90.37 518.45 92.03 511.39 92.03 513.63 81.23 515.59 81.23 513.7 90.37"/>
  <path class="cls-3" d="M118.19,90.62h-3.37c-1.6.01-2.96-1.06-3.39-2.52h2.74c.18.11.41.18.64.18h3.36c.35-.01.66-.16.87-.4h-.76c-.64,0-1.16-.51-1.16-1.15,0-.64.51-1.16,1.15-1.16h.79c-.22-.27-.54-.43-.91-.43h-3.37c-.21.01-.41.08-.58.17h-2.79c.43-1.44,1.77-2.5,3.36-2.51h3.37c1.69-.02,3.1,1.17,3.45,2.76l4.67-.02c.64,0,1.16.51,1.16,1.15,0,.64-.51,1.16-1.15,1.16l-4.68.02c-.35,1.57-1.75,2.75-3.43,2.75"/>
  <path class="cls-3" d="M107.21,87.88l7.99-.03c.64,0,1.15-.52,1.15-1.16,0-.64-.52-1.15-1.16-1.15l-7.99.03c-.64,0-1.15.52-1.15,1.16,0,.64.52,1.15,1.16,1.15"/>
  <path class="cls-3" d="M96.05,90.62h-3.37c-1.6.01-2.96-1.06-3.39-2.52h2.74c.19.11.41.18.64.18h3.36c.35-.01.66-.16.88-.4h-1.09c-.64,0-1.16-.51-1.16-1.15,0-.64.52-1.16,1.15-1.16h1.12c-.22-.27-.54-.43-.91-.43h-3.36c-.21.01-.41.08-.58.17h-2.79c.43-1.44,1.78-2.5,3.37-2.51h3.36c1.69-.02,3.1,1.17,3.45,2.75h1.26c.36-1.56,1.75-2.71,3.42-2.72h3.37c1.59-.02,2.94,1.04,3.38,2.48h-2.79c-.17-.09-.37-.15-.58-.15h-3.37c-.33,0-.63.15-.84.37h.49c.64,0,1.16.51,1.16,1.15,0,.64-.51,1.16-1.15,1.16h-.59c.21.28.55.47.94.46h3.37c.24-.01.46-.09.64-.21h2.74c-.42,1.46-1.77,2.54-3.37,2.54h-3.36c-1.7.02-3.13-1.19-3.46-2.79h-1.25c-.35,1.57-1.75,2.75-3.42,2.76"/>
  <path class="cls-3" d="M85.07,87.88l7.99-.03c.64,0,1.15-.52,1.15-1.16,0-.64-.52-1.15-1.16-1.15l-7.99.03c-.64,0-1.15.52-1.15,1.16,0,.64.52,1.15,1.16,1.15"/>
  <path class="cls-3" d="M62.96,87.88l7.99-.03c.64,0,1.15-.52,1.15-1.16,0-.64-.52-1.15-1.16-1.15l-7.99.03c-.64,0-1.15.52-1.15,1.16,0,.64.52,1.15,1.16,1.15"/>
  <path class="cls-3" d="M73.94,90.62h-3.37c-1.6.01-2.96-1.06-3.39-2.52h2.74c.18.11.4.18.64.18h3.37c.35-.01.66-.16.87-.4h-.79c-.64,0-1.16-.51-1.16-1.15,0-.64.51-1.16,1.15-1.16h.82c-.22-.27-.54-.43-.91-.43h-3.37c-.21.01-.41.07-.58.17h-2.79c.43-1.44,1.78-2.5,3.36-2.51h3.37c1.69-.02,3.11,1.17,3.45,2.76h1.22c.36-1.56,1.76-2.71,3.42-2.72h3.37c1.59-.02,2.94,1.04,3.38,2.48h-2.79c-.17-.09-.37-.15-.58-.15h-3.36c-.33,0-.63.15-.84.37h.83c.64,0,1.16.51,1.16,1.15,0,.64-.51,1.16-1.15,1.16h-.92c.21.28.55.47.94.46h3.36c.24-.01.46-.09.64-.21h2.74c-.42,1.46-1.77,2.54-3.37,2.54h-3.37c-1.7.02-3.13-1.19-3.46-2.79h-1.21c-.35,1.57-1.75,2.75-3.42,2.76"/>
</svg>